Coordinates
version=1
nRows=11
nColumns=46
inDegrees=yes

Units are S.I. units (second, meters, Newtons, ...)
Angles are in degrees.

endheader
time	pelvis_tilt	pelvis_list	pelvis_rotation	pelvis_tx	pelvis_ty	pelvis_tz	bb_angle	bb_tx	bb_ty	bb_tz	hip_flexion_r	hip_adduction_r	hip_rotation_r	knee_angle_r	knee_angle_r_beta	ankle_angle_r	subtalar_angle_r	mtp_angle_r	crank_angle_r	hip_flexion_l	hip_adduction_l	hip_rotation_l	knee_angle_l	knee_angle_l_beta	ankle_angle_l	subtalar_angle_l	mtp_angle_l	crank_angle_l	lumbar_extension	lumbar_bending	lumbar_rotation	arm_flex_r	arm_add_r	arm_rot_r	elbow_flex_r	pro_sup_r	wrist_flex_r	wrist_dev_r	arm_flex_l	arm_add_l	arm_rot_l	elbow_flex_l	pro_sup_l	wrist_flex_l	wrist_dev_l
      7.50500000	    -24.13192948	    -13.87511238	     -0.31548460	      0.43714751	      1.15285070	     -0.18752875	      0.00000000	      0.50000000	      0.00000000	      0.25000000	     61.46629327	     11.80565485	     -5.58436899	     99.65081990	      1.73923491	     -8.08620373	    -14.38845528	      0.00000000	      0.00000000	     33.36047696	    -18.69756377	      8.14198597	     21.77981007	      0.38012940	    -12.53485196	     -3.31834623	      0.00000000	      0.00000000	    -51.13931797	      6.28043640	     -9.48821485	     73.92148784	      8.64633799	     77.27621009	     16.90318283	     60.90916833	      0.00000000	      0.00000000	     30.38770308	    -44.07337812	     11.32122488	     85.84751874	     53.03195252	      0.00000000	      0.00000000
      7.51000000	    -24.52843922	    -14.01768923	     -1.99207174	      0.43675804	      1.15113357	     -0.18796876	      0.00000000	      0.50000000	      0.00000000	      0.25000000	     63.27781163	     12.54821756	     -5.40289500	    101.14272077	      1.76527349	     -7.23460267	    -14.21392044	      0.00000000	      0.00000000	     31.98032645	    -19.75847835	      6.42691754	     20.51258784	      0.35801220	    -13.27470233	     -2.77074192	      0.00000000	      0.00000000	    -50.70391222	      6.02157351	     -8.48310185	     74.05976183	      8.73844589	     77.63178995	     16.94948701	     61.11058329	      0.00000000	      0.00000000	     29.84044281	    -43.89601386	     11.27871816	     85.32293987	     52.96200378	      0.00000000	      0.00000000
      7.51500000	    -24.79108111	    -14.18067586	     -3.54118161	      0.43641901	      1.14991440	     -0.18870947	      0.00000000	      0.50000000	      0.00000000	      0.25000000	     64.89646778	     13.27429847	     -5.25633175	    102.41437981	      1.78746813	     -6.42749896	    -13.75673768	      0.00000000	      0.00000000	     30.48426288	    -20.75446265	      4.67839101	     19.32364841	      0.33726129	    -13.87199376	     -1.77292186	      0.00000000	      0.00000000	    -50.46745996	      5.99345344	     -7.44276511	     74.68674128	      8.54644877	     79.65300837	     17.04425266	     62.86661113	      0.00000000	      0.00000000	     29.42735837	    -43.30967455	     10.86276512	     84.43767567	     52.88421995	      0.00000000	      0.00000000
      7.52000000	    -25.16870836	    -14.41798187	     -4.80783748	      0.43602986	      1.14877332	     -0.18999786	      0.00000000	      0.50000000	      0.00000000	      0.25000000	     66.58789386	     13.66230709	     -5.43300194	    103.48210510	      1.80610345	     -5.74552656	    -13.51804481	      0.00000000	      0.00000000	     29.19511866	    -21.57299946	      3.52595600	     18.12746387	      0.31638393	    -14.62565879	     -1.11885222	      0.00000000	      0.00000000	    -50.21479168	      6.24910233	     -6.61884848	     74.83908873	      8.82039429	     79.71849052	     17.31805792	     62.95666826	      0.00000000	      0.00000000	     28.90023338	    -43.24228859	     10.94119123	     84.02249197	     52.83920457	      0.00000000	      0.00000000
      7.52500000	    -25.15555881	    -14.34108720	     -6.40804501	      0.43640766	      1.14849767	     -0.19099776	      0.00000000	      0.50000000	      0.00000000	      0.25000000	     67.72632172	     14.26735057	     -5.04179317	    104.41144913	      1.82232356	     -4.84854597	    -12.55207571	      0.00000000	      0.00000000	     27.25017742	    -22.31860133	      0.97160372	     17.05062873	      0.29758961	    -15.01620074	      0.51224825	      0.00000000	      0.00000000	    -50.29667526	      5.91344696	     -5.51726589	     74.92918695	      8.40775337	     80.08786054	     17.98255185	     63.45773554	      0.00000000	      0.00000000	     28.76771328	    -42.29418189	     10.54429905	     82.96367819	     52.65773648	      0.00000000	      0.00000000
      7.53000000	    -25.40485041	    -14.34253428	     -7.61476409	      0.43637766	      1.14809991	     -0.19266660	      0.00000000	      0.50000000	      0.00000000	      0.25000000	     69.11150694	     14.51030622	     -4.95534611	    105.11834927	      1.83466130	     -4.18513929	    -11.86061592	      0.00000000	      0.00000000	     25.79027817	    -22.79380501	     -0.55478296	     15.95362089	      0.27844321	    -15.81075516	      1.46338472	      0.00000000	      0.00000000	    -50.23662645	      6.02443811	     -4.78531866	     75.06795494	      8.37486723	     80.18360226	     18.31688380	     63.62625746	      0.00000000	      0.00000000	     28.37737739	    -42.02833801	     10.64818968	     82.40400634	     52.59439309	      0.00000000	      0.00000000
      7.53500000	    -25.48854129	    -14.30096886	     -8.74445442	      0.43658356	      1.14821262	     -0.19434919	      0.00000000	      0.50000000	      0.00000000	      0.25000000	     70.20682004	     14.69102359	     -4.81951967	    105.64159060	      1.84379358	     -3.32335037	    -10.99581753	      0.00000000	      0.00000000	     24.26723551	    -23.19794157	     -2.42823152	     15.08756840	      0.26332774	    -16.42839369	      2.81987487	      0.00000000	      0.00000000	    -50.19574510	      5.94363120	     -3.29590930	     75.22528330	      6.82237633	     80.21840659	     19.91820528	     64.53675107	      0.00000000	      0.00000000	     29.98156873	    -40.41599336	     11.85965667	     80.30358301	     52.42644575	      0.00000000	      0.00000000
      7.54000000	    -25.50851701	    -14.06861505	     -9.70933864	      0.43694747	      1.14866075	     -0.19640881	      0.00000000	      0.50000000	      0.00000000	      0.25000000	     71.15895487	     14.58332845	     -4.55374907	    106.02724330	      1.85052449	     -2.47757140	     -9.92587731	      0.00000000	      0.00000000	     22.87498997	    -23.28773903	     -4.36047494	     14.46347482	      0.25243526	    -17.14482384	      4.01606699	      0.00000000	      0.00000000	    -50.34408310	      5.95579302	     -2.79309874	     75.30786901	      6.71425285	     80.10528548	     20.23536657	     64.62951046	      0.00000000	      0.00000000	     29.83244651	    -40.19464030	     11.99930151	     79.67986963	     52.35686832	      0.00000000	      0.00000000
      7.54500000	    -25.69105693	    -13.96569066	    -10.37543850	      0.43692862	      1.14917445	     -0.19878422	      0.00000000	      0.50000000	      0.00000000	      0.25000000	     72.19144700	     14.27095618	     -4.57500657	    106.14362033	      1.85255565	     -1.84807433	     -9.34271015	      0.00000000	      0.00000000	     21.93146690	    -23.31465300	     -5.44888590	     13.95741909	      0.24360292	    -18.06348482	      4.82907586	      0.00000000	      0.00000000	    -50.41041021	      6.32041825	     -2.33341622	     75.55111101	      6.70372680	     79.99045078	     20.63125941	     64.67175299	      0.00000000	      0.00000000	     29.71966509	    -39.91963432	     12.12095657	     79.25844187	     52.30926091	      0.00000000	      0.00000000
      7.55000000	    -25.64880372	    -13.73661157	    -11.24380275	      0.43745381	      1.15037076	     -0.20076640	      0.00000000	      0.50000000	      0.00000000	      0.25000000	     72.80312916	     14.21901589	     -4.25159086	    106.04588222	      1.85084980	     -0.68977276	     -7.97768538	      0.00000000	      0.00000000	     20.56036512	    -23.24908743	     -7.05548737	     13.38438536	      0.23360159	    -18.82905734	      5.71604824	      0.00000000	      0.00000000	    -50.52045508	      6.07393398	     -0.51051054	     75.10888627	      3.71183020	     78.30250822	     24.25636162	     64.93511555	      0.00000000	      0.00000000	     32.66825886	    -37.76385066	     14.58365816	     76.01802476	     52.11067657	      0.00000000	      0.00000000
      7.55500000	    -25.59953370	    -13.45229853	    -11.91901653	      0.43793730	      1.15185627	     -0.20287145	      0.00000000	      0.50000000	      0.00000000	      0.25000000	     73.28149338	     14.00823348	     -3.93553562	    105.76293105	      1.84591137	      0.24609725	     -7.01620325	      0.00000000	      0.00000000	     19.60337340	    -23.11751726	     -8.84872374	     13.34913673	      0.23298639	    -19.37934691	      6.23600779	      0.00000000	      0.00000000	    -50.83921877	      6.08293587	     -0.06619780	     75.18992799	      3.15833971	     77.89711475	     25.11432598	     64.92528146	      0.00000000	      0.00000000	     32.88418356	    -37.30631279	     14.80488248	     75.33734072	     52.04840917	      0.00000000	      0.00000000
